<svg version="1.1" id="Layer_1" xmlns="http://www.w3.org/2000/svg" xmlns:xlink="http://www.w3.org/1999/xlink" x="0px" y="0px" viewBox="0 0 500 500" style="width: 181px;" xml:space="preserve" data-imageid="data-collection-34" imageName="Data Collection" class="illustrations_image">
<style type="text/css">
	.st0_data-collection-34{fill:#68E1FD;}
	.st1_data-collection-34{fill:#093F68;}
	.st2_data-collection-34{fill:#F7F7F7;}
	.st3_data-collection-34{fill:#F56132;}
	.st4_data-collection-34{fill:#FFBC0E;}
	.st5_data-collection-34{fill:#70CC40;}
	.st6_data-collection-34{fill:#FFFFFF;}
	.st7_data-collection-34{fill:#DFEAEF;}
</style>
<g id="data_data-collection-34">
	<path class="st0_data-collection-34 targetColor" d="M427.4,160.2v179.7c0,18.4-43.5,33.4-97,33.4s-97-14.9-97-33.4V160.2H427.4z" style="fill: rgb(104, 225, 253);"/>
	<path class="st1_data-collection-34" d="M330.3,375.1c-55.5,0-98.9-15.5-98.9-35.2V160.2c0-1,0.8-1.9,1.9-1.9l0,0h194.1c1,0,1.9,0.8,1.9,1.8&#10;&#9;&#9;c0,0,0,0,0,0v179.7C429.2,359.6,385.8,375.1,330.3,375.1z M235.1,162v177.8c0,17.1,43.6,31.5,95.2,31.5s95.2-14.4,95.2-31.5V162&#10;&#9;&#9;H235.1z"/>
	<ellipse class="st2_data-collection-34" cx="330.3" cy="160.2" rx="97" ry="33.4"/>
	<path class="st1_data-collection-34" d="M330.3,195.4c-55.5,0-98.9-15.5-98.9-35.2s43.4-35.2,98.9-35.2s98.9,15.5,98.9,35.2S385.8,195.4,330.3,195.4z&#10;&#9;&#9; M330.3,128.7c-51.6,0-95.2,14.4-95.2,31.5s43.6,31.5,95.2,31.5s95.2-14.4,95.2-31.5S381.9,128.7,330.3,128.7z"/>
	<path class="st0_data-collection-34 targetColor" d="M233.3,215.8c0,18.4,43.4,33.4,97,33.4s97-14.9,97-33.4" style="fill: rgb(104, 225, 253);"/>
	<path class="st1_data-collection-34" d="M330.3,251c-55.5,0-98.9-15.5-98.9-35.2c0-1,0.8-1.9,1.9-1.9s1.9,0.8,1.9,1.9l0,0c0,17.1,43.6,31.5,95.2,31.5&#10;&#9;&#9;s95.2-14.4,95.2-31.5c-0.1-1,0.7-1.9,1.7-2c1-0.1,1.9,0.7,2,1.7c0,0.1,0,0.2,0,0.3C429.2,235.5,385.8,251,330.3,251z"/>
	<path class="st0_data-collection-34 targetColor" d="M233.3,277.5c0,18.4,43.4,33.4,97,33.4s97-15,97-33.4" style="fill: rgb(104, 225, 253);"/>
	<path class="st1_data-collection-34" d="M330.3,312.8c-55.5,0-98.9-15.5-98.9-35.2c0-1,0.8-1.9,1.9-1.9s1.9,0.8,1.9,1.9c0,17.1,43.6,31.5,95.2,31.5&#10;&#9;&#9;s95.2-14.4,95.2-31.5c-0.1-1,0.7-1.9,1.7-2c1-0.1,1.9,0.7,2,1.7c0,0.1,0,0.2,0,0.3C429.2,297.3,385.8,312.8,330.3,312.8z"/>
	<circle class="st3_data-collection-34" cx="353.3" cy="218.3" r="7.1"/>
	<path class="st1_data-collection-34" d="M353.3,227.2c-5,0-9-4-9-9c0-5,4-9,9-9c5,0,9,4,9,9c0,0,0,0,0,0C362.3,223.2,358.3,227.2,353.3,227.2z&#10;&#9;&#9; M353.3,213c-2.9,0-5.2,2.3-5.2,5.2s2.3,5.2,5.2,5.2c2.9,0,5.2-2.3,5.2-5.2C358.6,215.4,356.3,213,353.3,213&#10;&#9;&#9;C353.4,213,353.3,213,353.3,213L353.3,213z"/>
	<circle class="st4_data-collection-34" cx="330.3" cy="218.3" r="7.1"/>
	<path class="st1_data-collection-34" d="M330.3,227.2c-5,0-9-4-9-9s4-9,9-9s9,4,9,9c0,0,0,0.1,0,0.1C339.3,223.2,335.3,227.2,330.3,227.2z M330.3,213&#10;&#9;&#9;c-2.9,0-5.2,2.3-5.2,5.2s2.3,5.2,5.2,5.2c2.9,0,5.2-2.3,5.2-5.2C335.6,215.4,333.3,213,330.3,213C330.4,213,330.3,213,330.3,213&#10;&#9;&#9;L330.3,213z"/>
	<circle class="st5_data-collection-34" cx="307.3" cy="218.3" r="7.1"/>
	<path class="st1_data-collection-34" d="M307.3,227.2c-5,0-9-4-9-9s4-9,9-9s9,4,9,9c0,0,0,0.1,0,0.1C316.2,223.2,312.2,227.2,307.3,227.2z M307.3,213&#10;&#9;&#9;c-2.9,0-5.2,2.3-5.2,5.2s2.3,5.2,5.2,5.2c2.9,0,5.2-2.3,5.2-5.2C312.6,215.4,310.2,213,307.3,213C307.3,213,307.3,213,307.3,213&#10;&#9;&#9;L307.3,213z"/>
	<circle class="st3_data-collection-34" cx="353.3" cy="277.5" r="7.1"/>
	<path class="st1_data-collection-34" d="M353.3,286.5c-4.9,0-8.9-4.1-8.9-9c0-4.9,4.1-8.9,9-8.9c4.9,0,8.9,4,8.9,8.9&#10;&#9;&#9;C362.3,282.5,358.3,286.5,353.3,286.5z M353.3,272.3c-2.9,0-5.2,2.3-5.2,5.2s2.3,5.2,5.2,5.2c2.9,0,5.2-2.3,5.2-5.2&#10;&#9;&#9;C358.6,274.7,356.2,272.3,353.3,272.3z"/>
	<circle class="st4_data-collection-34" cx="330.3" cy="277.5" r="7.1"/>
	<path class="st1_data-collection-34" d="M330.3,286.5c-4.9,0-8.9-4-8.9-9s4-8.9,9-8.9c4.9,0,8.9,4,8.9,8.9C339.3,282.5,335.3,286.5,330.3,286.5z&#10;&#9;&#9; M330.3,272.3c-2.9,0-5.2,2.3-5.2,5.2s2.3,5.2,5.2,5.2c2.9,0,5.2-2.3,5.2-5.2C335.6,274.7,333.2,272.3,330.3,272.3&#10;&#9;&#9;C330.3,272.3,330.3,272.3,330.3,272.3z"/>
	<circle class="st5_data-collection-34" cx="307.3" cy="277.5" r="7.1"/>
	<path class="st1_data-collection-34" d="M307.3,286.5c-4.9,0-8.9-4-8.9-9s4-8.9,9-8.9c4.9,0,8.9,4,8.9,8.9C316.2,282.5,312.2,286.5,307.3,286.5z&#10;&#9;&#9; M307.3,272.3c-2.9,0-5.2,2.3-5.2,5.2s2.3,5.2,5.2,5.2c2.9,0,5.2-2.3,5.2-5.2C312.5,274.7,310.2,272.3,307.3,272.3z"/>
	<circle class="st3_data-collection-34" cx="353.3" cy="336.8" r="7.1"/>
	<path class="st1_data-collection-34" d="M353.3,345.8c-4.9,0-8.9-4.1-8.9-9c0-4.9,4.1-8.9,9-8.9c4.9,0,8.9,4,8.9,8.9&#10;&#9;&#9;C362.3,341.8,358.3,345.8,353.3,345.8z M353.3,331.6c-2.9,0-5.2,2.3-5.2,5.2s2.3,5.2,5.2,5.2c2.9,0,5.2-2.3,5.2-5.2&#10;&#9;&#9;C358.6,333.9,356.2,331.6,353.3,331.6C353.3,331.6,353.3,331.6,353.3,331.6z"/>
	<circle class="st4_data-collection-34" cx="330.3" cy="336.8" r="7.1"/>
	<path class="st1_data-collection-34" d="M330.3,345.8c-4.9,0-8.9-4-8.9-9s4-8.9,9-8.9c4.9,0,8.9,4,8.9,8.9C339.3,341.8,335.3,345.8,330.3,345.8z&#10;&#9;&#9; M330.3,331.6c-2.9,0-5.2,2.3-5.2,5.2s2.3,5.2,5.2,5.2c2.9,0,5.2-2.3,5.2-5.2C335.6,333.9,333.2,331.6,330.3,331.6&#10;&#9;&#9;C330.3,331.6,330.3,331.6,330.3,331.6z"/>
	<circle class="st5_data-collection-34" cx="307.3" cy="336.8" r="7.1"/>
	<path class="st1_data-collection-34" d="M307.3,345.8c-4.9,0-8.9-4-8.9-9s4-8.9,9-8.9c4.9,0,8.9,4,8.9,8.9C316.2,341.8,312.2,345.8,307.3,345.8z&#10;&#9;&#9; M307.3,331.6c-2.9,0-5.2,2.3-5.2,5.2s2.3,5.2,5.2,5.2c2.9,0,5.2-2.3,5.2-5.2C312.5,333.9,310.2,331.6,307.3,331.6&#10;&#9;&#9;C307.3,331.6,307.3,331.6,307.3,331.6z"/>
</g>
<g id="lines_data-collection-34">
	<path class="st1_data-collection-34" d="M216.9,251.9h-38.5c-1,0-1.9-0.8-1.9-1.9s0.8-1.9,1.9-1.9h38.5c1,0,1.9,0.8,1.9,1.9S218,251.9,216.9,251.9&#10;&#9;&#9;L216.9,251.9z"/>
	<path class="st1_data-collection-34" d="M198.6,345.8h-20.2c-1,0-1.9-0.8-1.9-1.9c0-1,0.8-1.9,1.9-1.9h18.3V157.9h-18.3c-1,0-1.9-0.8-1.9-1.9&#10;&#9;&#9;s0.8-1.9,1.9-1.9h20.2c1,0,1.9,0.8,1.9,1.9l0,0v187.8C200.4,344.9,199.6,345.8,198.6,345.8z"/>
</g>
<g id="files_data-collection-34">
	<path class="st6_data-collection-34" d="M158.2,196.6H76.8c-2.3,0-4.2-1.9-4.2-4.2v-48.1l18.5-17.5h67c2.3,0,4.2,1.9,4.2,4.2v61.4&#10;&#9;&#9;C162.3,194.7,160.5,196.6,158.2,196.6z"/>
	<path class="st1_data-collection-34" d="M158.2,198.5H76.8c-3.3,0-6-2.7-6-6.1v-48.1c0-0.5,0.2-1,0.6-1.4l18.5-17.5c0.3-0.3,0.8-0.5,1.3-0.5h67&#10;&#9;&#9;c3.3,0,6,2.7,6.1,6v61.4C164.2,195.8,161.5,198.5,158.2,198.5z M74.5,145.1v47.3c0,1.3,1,2.3,2.3,2.3h81.3c1.3,0,2.3-1,2.3-2.3V131&#10;&#9;&#9;c0-1.3-1-2.3-2.3-2.3c0,0,0,0,0,0H91.9L74.5,145.1z"/>
	<path class="st6_data-collection-34" d="M72.6,144.3H89c1.4,0,2.5-1.1,2.5-2.5v-15L72.6,144.3z"/>
	<path class="st1_data-collection-34" d="M89,146.2H72.6c-1,0-1.8-0.9-1.8-1.9c0-0.5,0.2-0.9,0.5-1.3l18.8-17.5c0.5-0.5,1.3-0.6,2-0.3&#10;&#9;&#9;c0.7,0.3,1.1,1,1.1,1.7v15.1C93.3,144.3,91.4,146.2,89,146.2z M77.3,142.5H89c0.3,0,0.6-0.3,0.6-0.6l0,0v-10.8L77.3,142.5z"/>
	<path class="st7_data-collection-34" d="M145.4,153.9H89.6c-1,0-1.9-0.8-1.9-1.9s0.8-1.9,1.9-1.9h55.8c1,0,1.9,0.8,1.9,1.9S146.4,153.9,145.4,153.9z"/>
	<path class="st7_data-collection-34" d="M145.4,166.8H89.6c-1,0-1.9-0.8-1.9-1.9s0.8-1.9,1.9-1.9h55.8c1,0,1.9,0.8,1.9,1.9S146.4,166.8,145.4,166.8z"/>
	<path class="st7_data-collection-34" d="M133.9,179.7H89.6c-1,0.1-1.9-0.7-2-1.7c-0.1-1,0.7-1.9,1.7-2c0.1,0,0.2,0,0.3,0h44.3c1-0.1,1.9,0.7,2,1.7&#10;&#9;&#9;c0.1,1-0.7,1.9-1.7,2C134.1,179.7,134,179.7,133.9,179.7z"/>
	<path class="st6_data-collection-34" d="M158.2,284.9H76.8c-2.3,0-4.2-1.9-4.2-4.2v-48.1l18.5-17.5h67c2.3,0,4.2,1.9,4.2,4.2v61.5&#10;&#9;&#9;C162.3,283,160.5,284.9,158.2,284.9z"/>
	<path class="st1_data-collection-34" d="M158.2,286.8H76.8c-3.3,0-6-2.7-6-6.1v-48.1c0-0.5,0.2-1,0.6-1.4l18.5-17.5c0.3-0.3,0.8-0.5,1.3-0.5h67&#10;&#9;&#9;c3.3,0,6.1,2.7,6.1,6.1v61.4C164.2,284.1,161.5,286.8,158.2,286.8z M74.5,233.4v47.3c0,1.3,1,2.3,2.3,2.3h81.3c1.3,0,2.3-1,2.3-2.3&#10;&#9;&#9;v-61.4c0-1.3-1-2.3-2.3-2.3H91.9L74.5,233.4z"/>
	<path class="st6_data-collection-34" d="M72.6,232.6H89c1.4,0,2.5-1.1,2.5-2.5l0,0v-15.1L72.6,232.6z"/>
	<path class="st1_data-collection-34" d="M89,234.5H72.6c-1,0-1.9-0.8-1.9-1.9c0-0.5,0.2-1,0.6-1.4l18.8-17.5c0.5-0.5,1.3-0.6,2-0.4&#10;&#9;&#9;c0.7,0.3,1.1,1,1.1,1.7v15.1C93.3,232.5,91.4,234.5,89,234.5z M77.3,230.7H89c0.3,0,0.6-0.3,0.6-0.6l0,0v-10.8L77.3,230.7z"/>
	<path class="st7_data-collection-34" d="M145.4,242.1H89.6c-1,0-1.9-0.8-1.9-1.9s0.8-1.9,1.9-1.9h55.8c1,0,1.9,0.8,1.9,1.9S146.4,242.1,145.4,242.1z"/>
	<path class="st7_data-collection-34" d="M145.4,255H89.6c-1,0-1.9-0.8-1.9-1.9s0.8-1.9,1.9-1.9h55.8c1,0,1.9,0.8,1.9,1.9S146.4,255,145.4,255z"/>
	<path class="st7_data-collection-34" d="M133.9,267.9H89.6c-1,0.1-1.9-0.7-2-1.7c-0.1-1,0.7-1.9,1.7-2c0.1,0,0.2,0,0.3,0h44.3c1-0.1,1.9,0.7,2,1.7&#10;&#9;&#9;c0.1,1-0.7,1.9-1.7,2C134.1,267.9,134,267.9,133.9,267.9z"/>
	<path class="st6_data-collection-34" d="M158.2,373.2H76.8c-2.3,0-4.2-1.9-4.2-4.2v-48.1l18.5-17.5h67c2.3,0,4.2,1.9,4.2,4.2V369&#10;&#9;&#9;C162.3,371.3,160.5,373.2,158.2,373.2z"/>
	<path class="st1_data-collection-34" d="M158.2,375.1H76.8c-3.3,0-6-2.7-6-6v-48.1c0-0.5,0.2-1,0.6-1.4L89.8,302c0.3-0.3,0.8-0.5,1.3-0.5h67&#10;&#9;&#9;c3.3,0,6.1,2.7,6.1,6.1V369C164.2,372.3,161.5,375,158.2,375.1z M74.5,321.7V369c0,1.3,1,2.3,2.3,2.3c0,0,0,0,0,0h81.3&#10;&#9;&#9;c1.3,0,2.3-1,2.3-2.3c0,0,0,0,0,0v-61.4c0-1.3-1-2.3-2.3-2.3H91.9L74.5,321.7z"/>
	<path class="st6_data-collection-34" d="M72.6,320.9H89c1.4,0,2.5-1.1,2.5-2.5v-15.1L72.6,320.9z"/>
	<path class="st1_data-collection-34" d="M89,322.7H72.6c-1,0-1.9-0.8-1.9-1.9c0-0.5,0.2-1,0.6-1.4L90.2,302c0.5-0.5,1.3-0.6,2-0.3&#10;&#9;&#9;c0.7,0.3,1.1,1,1.1,1.7v15.1C93.3,320.8,91.4,322.7,89,322.7z M77.4,319H89c0.3,0,0.6-0.3,0.6-0.6l0,0v-10.8L77.4,319z"/>
	<path class="st7_data-collection-34" d="M145.4,330.4H89.6c-1,0-1.9-0.8-1.9-1.9c0-1,0.8-1.9,1.9-1.9h55.8c1,0,1.9,0.8,1.9,1.9&#10;&#9;&#9;C147.3,329.6,146.4,330.4,145.4,330.4z"/>
	<path class="st7_data-collection-34" d="M145.4,343.3H89.6c-1,0-1.9-0.8-1.9-1.9c0-1,0.8-1.9,1.9-1.9h55.8c1,0,1.9,0.8,1.9,1.9&#10;&#9;&#9;C147.3,342.5,146.4,343.3,145.4,343.3z"/>
	<path class="st7_data-collection-34" d="M133.9,356.2H89.6c-1,0.1-1.9-0.7-2-1.7c-0.1-1,0.7-1.9,1.7-2c0.1,0,0.2,0,0.3,0h44.3c1-0.1,1.9,0.7,2,1.7&#10;&#9;&#9;c0.1,1-0.7,1.9-1.7,2C134.1,356.2,134,356.2,133.9,356.2z"/>
</g>
</svg>